<svg xmlns="http://www.w3.org/2000/svg" height="800" width="1200" viewBox="-121.5087 -26.884 1053.0754 161.304"><path d="M102.327 107.277a52.047 52.047 0 01-10.14-1.967c-12.334-3.712-21.276-13.362-24.7-26.654-1.613-6.263-1.55-4.694-1.671-41.492l-.113-34.275h14.124V35.6c0 21.47.111 33.712.324 35.623 1.224 10.973 7.802 18.439 19.474 22.102 5.713 1.793 10.3 1.875 15.856.283 10.05-2.88 16.037-9.165 18.026-18.925.605-2.967.62-3.86.62-37.417V2.889h15v33.636c0 36.423-.006 36.59-1.654 42.714-3.625 13.482-12.93 23.015-25.777 26.413-5.821 1.54-13.489 2.183-19.37 1.625zm357.01-.014c-5.86-.564-11.693-2.29-15.736-4.657-2.73-1.598-6.647-5.225-8.35-7.731-1.563-2.299-3.328-6.134-3.952-8.586-.888-3.49-1.23-8.633-.835-12.55.655-6.502 2.462-10.956 5.987-14.763 4.428-4.783 9.316-7.563 17.34-9.864 4.81-1.378 8.594-2.025 20.386-3.48 15.676-1.936 17.396-2.194 19.26-2.891 2.2-.823 4.004-2.633 4.913-4.93.617-1.558.703-2.28.707-5.972.004-3.553-.103-4.547-.691-6.45-2.085-6.747-6.985-10.519-15.356-11.821-12.124-1.886-22.47.305-28.301 5.993-3.29 3.21-5.572 9.243-5.58 14.753l-.003 1.575h-14.7l.006-.675c.025-2.86 1.231-9.068 2.463-12.675 2.838-8.307 9.861-15.504 18.311-18.763 7.238-2.791 16.773-4.013 25.71-3.294 12.024.967 18.379 3.376 24.16 9.157 4.299 4.299 6.333 7.972 7.86 14.194.433 1.769.512 5.692.666 33.206.172 30.88.18 31.212.8 32.4 1.492 2.859 5.145 3.585 9.199 1.83l1.125-.488v13.135l-2.475.411c-3.04.506-9.71.52-11.872.024-3.677-.841-6.742-3.164-8.3-6.287-.879-1.764-1.64-4.961-1.648-6.925-.003-.715-.123-1.255-.267-1.2-.144.055-1.065 1.112-2.045 2.35-5.472 6.906-10.692 10.771-17.578 13.02-6 1.958-13.746 2.672-21.204 1.954zm13.212-12.756c11.327-1.932 19.7-7.867 23.978-16.997 2.197-4.689 2.47-6.392 2.621-16.346.073-4.826.07-8.775-.006-8.775-.076 0-.73.26-1.452.577-2.799 1.231-10.14 2.647-21.863 4.217-19.231 2.575-28.347 7.094-30.482 15.111-.548 2.06-.528 6.548.04 8.73 1.767 6.78 7.913 12.098 15.764 13.639 2.257.442 8.381.359 11.4-.156zm82.178 10.97c-8.978-1.07-13.952-4.828-15.748-11.901-.983-3.87-1.04-6.185-1.046-41.862l-.006-35.925h-17.4v-12.6h52.2v12.6h-20.4l.009 33.525c.009 31.84.106 36.163.884 39.053.745 2.764 2.791 4.32 6.355 4.834 1.805.26 10.394-.079 12.326-.486l.825-.174v12.853l-5.448.198c-6.456.233-9.896.202-12.552-.114zM.112 68.215C.234 28.1.149 30.078 2.014 23.889 6.32 9.594 18.264 1.517 37.046.198c5.683-.4 13.61.062 18.106 1.054l.675.148v13.677l-2.775-.42c-1.63-.247-5.374-.434-9.075-.454-5.492-.03-6.701.053-9.427.643-9.379 2.027-15.268 6.499-18.074 13.725-1.409 3.629-1.772 6.67-1.68 14.085l.08 6.583 17.026.077 17.025.078v13.495h-33.9v42H0l.112-36.675zM160.527 54.04V3.189h14.688l.08 6.638.082 6.639 1.038-1.614c1.469-2.283 5.444-6.168 8.236-8.048 4.42-2.978 9.943-5.175 15.303-6.087 2.729-.465 10.9-.433 14.573.056 14.433 1.922 23.877 9.552 27.143 21.931 1.811 6.864 1.744 5.234 1.868 45.36l.113 36.825h-14.394l-.12-34.575c-.129-37.26-.117-36.974-1.737-42.375-2.113-7.046-6.787-11.84-13.567-13.917-4.713-1.442-12.105-1.454-17.252-.028-9.523 2.639-16.669 10.098-19.702 20.566-1.659 5.723-1.65 5.517-1.651 39.204l-.001 31.125h-14.7v-50.85zm93.9 0V3.189h14.7v101.7h-14.7zm27 0V3.189h13.489l.08 6.952.08 6.952 1.681-2.227c5.43-7.193 11.642-11.51 19.163-13.317 9.538-2.292 19.182-1.434 26.887 2.39 5.367 2.663 8.988 6.12 11.529 11.003.671 1.29 1.262 2.347 1.312 2.347.05 0 .716-.94 1.48-2.09 4.927-7.41 12.756-12.305 22.86-14.297 3.227-.636 10.745-.71 14.389-.142 8.205 1.279 13.925 4.052 18.42 8.93 4.889 5.306 7.48 12.487 8.131 22.535.157 2.427.289 19.77.292 38.539l.006 34.125h-14.7V69.406c0-22.641-.112-36.403-.31-38.025-.992-8.107-4.194-13.609-9.333-16.032-2.8-1.321-4.926-1.864-8.92-2.277-12.344-1.278-21.635 3.75-25.98 14.061-1.248 2.962-1.806 4.91-2.61 9.107-.639 3.333-.654 4.028-.763 36.024l-.11 32.625h-14.659l-.091-37.575-.091-37.575-.677-2.55c-1.413-5.328-4.196-9.517-7.67-11.547-3.819-2.231-8.693-3.132-14.011-2.588-7.075.722-11.613 2.726-16.044 7.085-4.49 4.417-7.205 10.352-8.727 19.075-.43 2.466-.508 6.82-.615 34.25l-.122 31.425h-14.368v-50.85zm303 0V3.189h14.4v101.7h-14.4zm71.4 50.419c-5.985-.861-11.23-2.472-16.35-5.02-25.681-12.778-36.363-43.598-24.104-69.55 10.415-22.05 35.043-33.982 59.049-28.609 20.089 4.497 35.499 20.246 39.912 40.792.824 3.832 1.136 12.564.603 16.824-.731 5.84-2.479 11.591-5.155 16.962-2.874 5.767-5.77 9.644-10.865 14.542-7.69 7.393-16.335 11.752-27.34 13.786-3.407.63-12.21.783-15.75.273zm12.837-20.427c3.113-.618 7.293-2.686 9.282-4.593 1.968-1.886 3.751-4.633 4.556-7.015.343-1.018.625-1.96.625-2.092 0-.133-9.063-.242-20.14-.242h-20.139l.182 1.125c.292 1.807 2.189 5.308 3.881 7.164 2.604 2.855 5.988 4.723 10.266 5.666 2.51.554 8.663.546 11.487-.013zm58.263-29.992V3.189h14.388l.08 6.646.082 6.646 1.547-2.082C748.128 7.534 756.068 2.71 765.272.884c3.777-.75 12.485-.67 17.16.159 14.217 2.518 22.807 10.045 25.788 22.596 1.64 6.91 1.606 5.996 1.726 45.025l.112 36.225h-14.731V71.154c0-36.07-.05-37.484-1.515-42.753-2.245-8.075-7.585-13.115-15.769-14.882-2.847-.614-9.543-.704-12.416-.167-11.59 2.169-19.761 10.335-22.938 22.92-1.281 5.08-1.362 7.389-1.362 38.779v29.838h-14.4z" fill="#472d8e"/></svg>